#Dinamond.obj

v -0.2636105 3.772456E-08 -2.384186E-07
v 8.195639E-08 0.2636105 -1.192093E-07
v 4.842877E-08 -8.366554E-09 0.4099981
v 7.078052E-08 -8.366559E-09 -0.4099984
v -0.2636105 3.772456E-08 -2.384186E-07
v 3.72529E-08 -0.2636105 -2.384186E-07
v 8.195639E-08 0.2636105 -1.192093E-07
v 0.2636106 -3.141212E-08 -2.384186E-07
v 4.842877E-08 -8.366554E-09 0.4099981
v 8.195639E-08 0.2636105 -1.192093E-07
v 7.078052E-08 -8.366559E-09 -0.4099984
v 0.2636106 -3.141212E-08 -2.384186E-07
v 3.72529E-08 -0.2636105 -2.384186E-07
v -0.2636105 3.772456E-08 -2.384186E-07
v 4.842877E-08 -8.366554E-09 0.4099981
v 7.078052E-08 -8.366559E-09 -0.4099984
v 8.195639E-08 0.2636105 -1.192093E-07
v -0.2636105 3.772456E-08 -2.384186E-07
v 0.2636106 -3.141212E-08 -2.384186E-07
v 3.72529E-08 -0.2636105 -2.384186E-07
v 4.842877E-08 -8.366554E-09 0.4099981
v 0.2636106 -3.141212E-08 -2.384186E-07
v 7.078052E-08 -8.366559E-09 -0.4099984
v 3.72529E-08 -0.2636105 -2.384186E-07

vn -0.6437038 0.6437038 0.4138728
vn -0.6437038 0.6437038 0.4138728
vn -0.6437038 0.6437038 0.4138728
vn -0.6437039 -0.6437038 -0.4138728
vn -0.6437039 -0.6437038 -0.4138728
vn -0.6437039 -0.6437038 -0.4138728
vn 0.643704 0.6437038 0.4138727
vn 0.643704 0.6437038 0.4138727
vn 0.643704 0.6437038 0.4138727
vn 0.6437038 0.6437039 -0.4138728
vn 0.6437038 0.6437039 -0.4138728
vn 0.6437038 0.6437039 -0.4138728
vn -0.643704 -0.6437038 0.4138727
vn -0.643704 -0.6437038 0.4138727
vn -0.643704 -0.6437038 0.4138727
vn -0.6437036 0.6437041 -0.4138729
vn -0.6437036 0.6437041 -0.4138729
vn -0.6437036 0.6437041 -0.4138729
vn 0.6437038 -0.643704 0.4138728
vn 0.6437038 -0.643704 0.4138728
vn 0.6437038 -0.643704 0.4138728
vn 0.6437038 -0.6437039 -0.4138729
vn 0.6437038 -0.6437039 -0.4138729
vn 0.6437038 -0.6437039 -0.4138729

vt 0.2742284 0.1750961
vt 0.2945848 0.1547396
vt 0.2945848 0.1750961
vt 0.2742284 0.1750961
vt 0.2945848 0.1547396
vt 0.2945848 0.1750961
vt 0.2742284 0.1750961
vt 0.2945848 0.1547396
vt 0.2945848 0.1750961
vt 0.2742284 0.1750961
vt 0.2945848 0.1547396
vt 0.2945848 0.1750961
vt 0.2742284 0.1750961
vt 0.2945848 0.1547396
vt 0.2945848 0.1750961
vt 0.2742284 0.1750961
vt 0.2945848 0.1547396
vt 0.2945848 0.1750961
vt 0.2742284 0.1750961
vt 0.2945848 0.1547396
vt 0.2945848 0.1750961
vt 0.2742284 0.1750961
vt 0.2945848 0.1547396
vt 0.2945848 0.1750961

g Dinamond.obj
usemtl Dinamond
usemap Dinamond
f 1/1/1 3/3/3 2/2/2
f 4/4/4 6/6/6 5/5/5
f 7/7/7 9/9/9 8/8/8
f 10/10/10 12/12/12 11/11/11
f 13/13/13 15/15/15 14/14/14
f 16/16/16 18/18/18 17/17/17
f 19/19/19 21/21/21 20/20/20
f 22/22/22 24/24/24 23/23/23
