#HamB.obj

v 0.2721775 2.070205 1.241554
v 0.8094762 1.848307 1.241554
v 0.8094763 1.848307 3.724662
v 0.2721776 2.070205 3.724662
v 0.2721774 2.070205 -1.241554
v 0.8094761 1.848307 -1.241554
v 0.2721773 2.070205 -3.724662
v 0.809476 1.848307 -3.724662
v 0.8094762 1.848307 1.241554
v 1.220958 1.437684 1.241554
v 1.220958 1.437684 3.724662
v 0.8094763 1.848307 3.724662
v 0.8094761 1.848307 -1.241554
v 1.220958 1.437684 -1.241554
v 0.809476 1.848307 -3.724662
v 1.220958 1.437684 -3.724662
v 1.220958 1.437684 1.241554
v 1.44398 0.9008511 1.241554
v 1.44398 0.900851 3.724662
v 1.220958 1.437684 3.724662
v 1.220958 1.437684 -1.241554
v 1.44398 0.9008511 -1.241554
v 1.220958 1.437684 -3.724662
v 1.44398 0.9008511 -3.724662
v -1.478493 0.8977954 1.241554
v -1.256594 1.435094 1.241554
v -1.256594 1.435094 3.724662
v -1.478493 0.8977954 3.724662
v -1.478493 0.8977954 -1.241554
v -1.256595 1.435094 -1.241554
v -1.478493 0.8977954 -3.724662
v -1.256595 1.435094 -3.724662
v -1.256594 1.435094 1.241554
v -0.8459714 1.846576 1.241554
v -0.8459713 1.846576 3.724662
v -1.256594 1.435094 3.724662
v -1.256595 1.435094 -1.241554
v -0.8459715 1.846576 -1.241554
v -1.256595 1.435094 -3.724662
v -0.8459716 1.846576 -3.724662
v -0.3091378 2.069598 1.241554
v 0.2721775 2.070205 1.241554
v 0.2721776 2.070205 3.724662
v -0.3091377 2.069598 3.724662
v -0.3091379 2.069598 -1.241554
v 0.2721774 2.070205 -1.241554
v -0.309138 2.069598 -3.724662
v 0.2721773 2.070205 -3.724662
v -0.8459714 1.846576 1.241554
v -0.3091378 2.069598 1.241554
v -0.3091377 2.069598 3.724662
v -0.8459713 1.846576 3.724662
v -0.8459715 1.846576 -1.241554
v -0.3091379 2.069598 -1.241554
v -0.8459716 1.846576 -3.724662
v -0.309138 2.069598 -3.724662
v 0.2139578 1.775909 -3.724662
v 0.2139581 1.775909 3.724662
v 0.6430662 1.598692 3.724662
v 0.6430658 1.598692 -3.724662
v 0.6430658 1.598692 -3.724662
v 0.6430662 1.598692 3.724662
v 0.971692 1.270753 3.724662
v 0.9716916 1.270753 -3.724662
v 0.9716916 1.270753 -3.724662
v 0.971692 1.270753 3.724662
v 1.149806 0.8420163 3.724662
v 1.149806 0.8420164 -3.724662
v -1.184197 0.839576 -3.724662
v -1.184196 0.839576 3.724662
v -1.006979 1.268684 3.724662
v -1.00698 1.268684 -3.724662
v -1.00698 1.268684 -3.724662
v -1.006979 1.268684 3.724662
v -0.6790395 1.59731 3.724662
v -0.6790398 1.59731 -3.724662
v -0.2503034 1.775424 -3.724662
v -0.2503031 1.775424 3.724662
v 0.2139581 1.775909 3.724662
v 0.2139578 1.775909 -3.724662
v -0.6790398 1.59731 -3.724662
v -0.6790395 1.59731 3.724662
v -0.2503031 1.775424 3.724662
v -0.2503034 1.775424 -3.724662
v 0.809476 1.848307 -3.724662
v 0.2721773 2.070205 -3.724662
v 0.2139578 1.775909 -3.724662
v 0.6430658 1.598692 -3.724662
v -0.8459716 1.846576 -3.724662
v -1.256595 1.435094 -3.724662
v -1.00698 1.268684 -3.724662
v -0.6790398 1.59731 -3.724662
v 1.44398 0.9008511 -3.724662
v 1.220958 1.437684 -3.724662
v 0.9716916 1.270753 -3.724662
v 1.149806 0.8420164 -3.724662
v -1.478493 0.8977954 3.724662
v -1.256594 1.435094 3.724662
v -1.006979 1.268684 3.724662
v -1.184196 0.839576 3.724662
v -0.6790395 1.59731 3.724662
v -0.8459713 1.846576 3.724662
v -0.2503031 1.775424 3.724662
v -0.3091377 2.069598 3.724662
v 0.2139581 1.775909 3.724662
v 0.2721776 2.070205 3.724662
v 0.8094763 1.848307 3.724662
v 1.220958 1.437684 3.724662
v 0.971692 1.270753 3.724662
v 0.6430662 1.598692 3.724662
v 0.2721776 2.070205 3.724662
v 0.2139581 1.775909 3.724662
v 1.149806 0.8420163 3.724662
v 1.44398 0.900851 3.724662
v -0.309138 2.069598 -3.724662
v -0.8459716 1.846576 -3.724662
v -0.6790398 1.59731 -3.724662
v -0.2503034 1.775424 -3.724662
v -1.256595 1.435094 -3.724662
v -1.478493 0.8977954 -3.724662
v -1.184197 0.839576 -3.724662
v -1.00698 1.268684 -3.724662
v 0.2721773 2.070205 -3.724662
v -0.309138 2.069598 -3.724662
v -0.2503034 1.775424 -3.724662
v 0.2139578 1.775909 -3.724662
v 1.220958 1.437684 -3.724662
v 0.809476 1.848307 -3.724662
v 0.6430658 1.598692 -3.724662
v 0.9716916 1.270753 -3.724662
v 1.44398 0.9008511 -3.724662
v 1.444588 0.319535 -3.724662
v 1.444588 0.319535 3.724662
v 1.44398 0.900851 3.724662
v -1.477885 0.3164792 -3.724662
v -1.478493 0.8977954 -3.724662
v -1.478493 0.8977954 3.724662
v -1.477885 0.3164791 3.724662
v 1.149806 0.8420164 -3.724662
v 1.149806 0.8420163 3.724662
v 1.144588 0.3192213 3.724662
v 1.144588 0.3192213 -3.724662
v -1.177886 0.3167929 -3.724662
v -1.177885 0.3167928 3.724662
v -1.184196 0.839576 3.724662
v -1.184197 0.839576 -3.724662
v 1.44398 0.900851 3.724662
v 1.444588 0.319535 3.724662
v 1.144588 0.3192213 3.724662
v 1.149806 0.8420163 3.724662
v -1.478493 0.8977954 -3.724662
v -1.477885 0.3164792 -3.724662
v -1.177886 0.3167929 -3.724662
v -1.184197 0.839576 -3.724662
v 1.444588 0.319535 3.724662
v 1.444588 0.319535 -3.724662
v 1.144588 0.3192213 -3.724662
v 1.144588 0.3192213 3.724662
v 1.444588 0.319535 -3.724662
v 1.44398 0.9008511 -3.724662
v 1.149806 0.8420164 -3.724662
v 1.144588 0.3192213 -3.724662
v -1.477885 0.3164791 3.724662
v -1.478493 0.8977954 3.724662
v -1.184196 0.839576 3.724662
v -1.177885 0.3167928 3.724662
v -1.477885 0.3164792 -3.724662
v -1.477885 0.3164791 3.724662
v -1.177885 0.3167928 3.724662
v -1.177886 0.3167929 -3.724662

vn 0.381717 0.9242793 0
vn 0.381717 0.9242793 0
vn 0.381717 0.9242793 0
vn 0.381717 0.9242793 0
vn 0.381717 0.9242793 0
vn 0.381717 0.9242793 0
vn 0.381717 0.9242793 0
vn 0.381717 0.9242793 0
vn 0.706367 0.7078457 0
vn 0.706367 0.7078457 0
vn 0.706367 0.7078457 0
vn 0.706367 0.7078457 0
vn 0.7063671 0.7078457 0
vn 0.7063671 0.7078457 0
vn 0.7063671 0.7078457 0
vn 0.7063671 0.7078457 0
vn 0.9234789 0.3836491 0
vn 0.9234789 0.3836491 0
vn 0.9234789 0.3836491 0
vn 0.9234789 0.3836491 0
vn 0.9234789 0.3836492 0
vn 0.9234789 0.3836492 0
vn 0.9234789 0.3836492 0
vn 0.9234789 0.3836492 0
vn -0.9242792 0.3817172 0
vn -0.9242792 0.3817172 0
vn -0.9242792 0.3817172 0
vn -0.9242792 0.3817172 0
vn -0.9242792 0.3817172 0
vn -0.9242792 0.3817172 0
vn -0.9242792 0.3817172 0
vn -0.9242792 0.3817172 0
vn -0.7078453 0.7063675 0
vn -0.7078453 0.7063675 0
vn -0.7078453 0.7063675 0
vn -0.7078453 0.7063675 0
vn -0.7078454 0.7063674 0
vn -0.7078454 0.7063674 0
vn -0.7078454 0.7063674 0
vn -0.7078454 0.7063674 0
vn -0.001044617 0.9999995 0
vn -0.001044617 0.9999995 0
vn -0.001044617 0.9999995 0
vn -0.001044617 0.9999995 0
vn -0.001044617 0.9999995 0
vn -0.001044617 0.9999995 0
vn -0.001044617 0.9999995 0
vn -0.001044617 0.9999995 0
vn -0.3836493 0.9234788 0
vn -0.3836493 0.9234788 0
vn -0.3836493 0.9234788 0
vn -0.3836493 0.9234788 0
vn -0.3836493 0.9234788 0
vn -0.3836493 0.9234788 0
vn -0.3836493 0.9234788 0
vn -0.3836493 0.9234788 0
vn -0.3817168 -0.9242793 0
vn -0.3817168 -0.9242793 0
vn -0.3817168 -0.9242793 0
vn -0.3817168 -0.9242793 0
vn -0.7063671 -0.7078456 0
vn -0.7063671 -0.7078456 0
vn -0.7063671 -0.7078456 0
vn -0.7063671 -0.7078456 0
vn -0.9234788 -0.3836494 0
vn -0.9234788 -0.3836494 0
vn -0.9234788 -0.3836494 0
vn -0.9234788 -0.3836494 0
vn 0.9242791 -0.3817173 0
vn 0.9242791 -0.3817173 0
vn 0.9242791 -0.3817173 0
vn 0.9242791 -0.3817173 0
vn 0.7078454 -0.7063674 0
vn 0.7078454 -0.7063674 0
vn 0.7078454 -0.7063674 0
vn 0.7078454 -0.7063674 0
vn 0.001044291 -0.9999995 0
vn 0.001044291 -0.9999995 0
vn 0.001044291 -0.9999995 0
vn 0.001044291 -0.9999995 0
vn 0.3836496 -0.9234788 0
vn 0.3836496 -0.9234788 0
vn 0.3836496 -0.9234788 0
vn 0.3836496 -0.9234788 0
vn 0 0 -1
vn 0 0 -1
vn 0 0 -1
vn 0 0 -1
vn 0 0 -1
vn 0 0 -1
vn 0 0 -1
vn 0 0 -1
vn 0 0 -1
vn 0 0 -1
vn 0 0 -1
vn 0 0 -1
vn 0 0 1
vn 0 0 1
vn 0 0 1
vn 0 0 1
vn 0 0 1
vn 0 0 1
vn 0 0 1
vn 0 0 1
vn 0 0 1
vn 0 0 1
vn 0 0 1
vn 0 0 1
vn 0 0 1
vn 0 0 1
vn 0 0 1
vn 0 0 1
vn 0 0 1
vn 0 0 1
vn 0 0 -1
vn 0 0 -1
vn 0 0 -1
vn 0 0 -1
vn 0 0 -1
vn 0 0 -1
vn 0 0 -1
vn 0 0 -1
vn 0 0 -1
vn 0 0 -1
vn 0 0 -1
vn 0 0 -1
vn 0 0 -1
vn 0 0 -1
vn 0 0 -1
vn 0 0 -1
vn 0.9999995 0.001045418 0
vn 0.9999995 0.001045418 0
vn 0.9999995 0.001045418 0
vn 0.9999995 0.001045418 0
vn -0.9999995 -0.001045858 0
vn -0.9999995 -0.001045858 0
vn -0.9999995 -0.001045858 0
vn -0.9999995 -0.001045858 0
vn -0.9999502 0.009980042 0
vn -0.9999502 0.009980042 0
vn -0.9999502 0.009980042 0
vn -0.9999502 0.009980042 0
vn 0.9999272 0.01207096 0
vn 0.9999272 0.01207096 0
vn 0.9999272 0.01207096 0
vn 0.9999272 0.01207096 0
vn 0 0 1
vn 0 0 1
vn 0 0 1
vn 0 0 1
vn 0 0 -1
vn 0 0 -1
vn 0 0 -1
vn 0 0 -1
vn 0.001045665 -0.9999995 0
vn 0.001045665 -0.9999995 0
vn 0.001045665 -0.9999995 0
vn 0.001045665 -0.9999995 0
vn 0 0 -1
vn 0 0 -1
vn 0 0 -1
vn 0 0 -1
vn 0 0 1
vn 0 0 1
vn 0 0 1
vn 0 0 1
vn 0.001045664 -0.9999995 0
vn 0.001045664 -0.9999995 0
vn 0.001045664 -0.9999995 0
vn 0.001045664 -0.9999995 0

vt 0.916979 0.3817456
vt 0.9586842 0.3817456
vt 0.9586843 0.1961979
vt 0.9169791 0.1961979
vt 0.9169789 0.5672933
vt 0.9586842 0.5672933
vt 0.9169788 0.7528411
vt 0.9586842 0.7528411
vt 0.916979 0.3817456
vt 0.9586842 0.3817456
vt 0.9586843 0.1961979
vt 0.9169791 0.1961979
vt 0.9169789 0.5672933
vt 0.9586842 0.5672933
vt 0.9169788 0.7528411
vt 0.9586842 0.7528411
vt 0.916979 0.3817456
vt 0.9586842 0.3817456
vt 0.9586843 0.1961979
vt 0.9169791 0.1961979
vt 0.9169789 0.5672933
vt 0.9586842 0.5672933
vt 0.9169788 0.7528411
vt 0.9586842 0.7528411
vt 0.916979 0.3817456
vt 0.9586842 0.3817456
vt 0.9586843 0.1961979
vt 0.9169791 0.1961979
vt 0.9169789 0.5672933
vt 0.9586842 0.5672933
vt 0.9169788 0.7528411
vt 0.9586842 0.7528411
vt 0.916979 0.3817456
vt 0.9586842 0.3817456
vt 0.9586843 0.1961979
vt 0.9169791 0.1961979
vt 0.9169789 0.5672933
vt 0.9586842 0.5672933
vt 0.9169788 0.7528411
vt 0.9586842 0.7528411
vt 0.916979 0.3817456
vt 0.9586842 0.3817456
vt 0.9586842 0.1961979
vt 0.9169791 0.1961979
vt 0.9169789 0.5672933
vt 0.9586841 0.5672933
vt 0.9169788 0.7528411
vt 0.9586841 0.7528411
vt 0.916979 0.3817456
vt 0.9586842 0.3817456
vt 0.9586843 0.1961979
vt 0.9169791 0.1961979
vt 0.9169789 0.5672933
vt 0.9586842 0.5672933
vt 0.9169788 0.7528411
vt 0.9586842 0.7528411
vt 0.9584863 0.7531057
vt 0.9584863 0.1975811
vt 0.9163093 0.1975811
vt 0.9163092 0.7531057
vt 0.9584863 0.7531057
vt 0.9584861 0.1975811
vt 0.9163093 0.1975811
vt 0.9163092 0.7531057
vt 0.9584863 0.7531057
vt 0.9584863 0.1975811
vt 0.9163093 0.1975811
vt 0.9163092 0.7531057
vt 0.9584863 0.7531057
vt 0.9584863 0.1975811
vt 0.9163093 0.1975811
vt 0.9163092 0.7531057
vt 0.9584863 0.7531057
vt 0.9584863 0.1975811
vt 0.9163093 0.1975811
vt 0.9163092 0.7531057
vt 0.9584863 0.7531057
vt 0.9584861 0.1975811
vt 0.9163093 0.1975811
vt 0.9163092 0.7531057
vt 0.9584863 0.7531057
vt 0.9584863 0.1975811
vt 0.9163092 0.1975811
vt 0.9163092 0.7531057
vt 0.9999289 0.4938468
vt 7.113439E-05 0.4938468
vt 0.1007367 0.9999287
vt 0.8992627 0.9999289
vt 0.9999288 0.4938466
vt 7.11344E-05 0.4938468
vt 0.1007373 0.9999289
vt 0.8992635 0.9999288
vt 7.11344E-05 0.9999287
vt 0.9999288 0.9999289
vt 0.899263 0.4938466
vt 0.1007369 0.4938467
vt 0.3966546 0.936674
vt 0.5076036 0.6680246
vt 0.6324115 0.7512297
vt 0.5438027 0.9657837
vt 0.796381 0.5869167
vt 0.7129154 0.4622835
vt 1.010749 0.4978597
vt 0.9813323 0.3507726
vt 1.24288 0.4976173
vt 1.27199 0.350469
vt 0.5406389 0.4614182
vt 0.7463803 0.6667295
vt 0.621747 0.7501954
vt 0.4574342 0.5862257
vt 0.2719898 0.350469
vt 0.2428799 0.4976173
vt 0.710804 0.9645636
vt 0.8578911 0.9351462
vt 0.9999288 0.4938472
vt 7.113436E-05 0.4938472
vt 0.100737 0.9999289
vt 0.8992625 0.9999287
vt 0.9999288 0.4938471
vt 7.113436E-05 0.4938472
vt 0.1007371 0.9999288
vt 0.8992629 0.9999289
vt 0.9999288 0.4938467
vt 7.113443E-05 0.4938462
vt 0.1007375 0.9999287
vt 0.899263 0.9999289
vt 0.9999289 0.493847
vt 7.113437E-05 0.493847
vt 0.1007372 0.9999289
vt 0.8992628 0.9999289
vt 0.829433 0.6333644
vt 0.8691626 0.6333645
vt 0.8691626 0.080369
vt 0.8294333 0.080369
vt 0.829433 0.6333644
vt 0.8691625 0.6333645
vt 0.8691625 0.080369
vt 0.8294333 0.080369
vt 0.8651643 0.6333653
vt 0.865164 0.08036822
vt 0.8294322 0.08036822
vt 0.8294322 0.6333653
vt 0.8651643 0.6333653
vt 0.865164 0.08036822
vt 0.8294322 0.08036822
vt 0.8294322 0.6333653
vt 0.9999282 0.4839448
vt 7.690217E-05 0.4839351
vt 7.18275E-05 0.9999282
vt 0.8992578 0.9900224
vt 0.1996117 0.9999107
vt 0.11806 0.7847898
vt 0.08406126 0.7795523
vt 8.932772E-05 0.9893858
vt 0.2813417 0.2152087
vt 0.2628079 0.8452933
vt 0.2971308 0.8424392
vt 0.3153405 0.2204462
vt 0.2628079 0.8452933
vt 0.1997903 0.9999107
vt 0.3428549 0.9988362
vt 0.2971308 0.8424392
vt 7.182838E-05 0.9999183
vt 0.9999282 0.9999282
vt 0.8992673 0.4938464
vt 7.680056E-05 0.4839225
vt 0.11806 0.7847898
vt 0.1365944 0.154706
vt 0.1022716 0.1575601
vt 0.08406126 0.7795523

g HamB.obj
usemtl HamB
usemap HamB
f 1/1/1 3/3/3 2/2/2
f 1/1/1 4/4/4 3/3/3
f 5/5/5 1/1/1 2/2/2
f 5/5/5 2/2/2 6/6/6
f 7/7/7 5/5/5 6/6/6
f 7/7/7 6/6/6 8/8/8
f 9/9/9 11/11/11 10/10/10
f 9/9/9 12/12/12 11/11/11
f 13/13/13 9/9/9 10/10/10
f 13/13/13 10/10/10 14/14/14
f 15/15/15 13/13/13 14/14/14
f 15/15/15 14/14/14 16/16/16
f 17/17/17 19/19/19 18/18/18
f 17/17/17 20/20/20 19/19/19
f 21/21/21 17/17/17 18/18/18
f 21/21/21 18/18/18 22/22/22
f 23/23/23 21/21/21 22/22/22
f 23/23/23 22/22/22 24/24/24
f 25/25/25 27/27/27 26/26/26
f 25/25/25 28/28/28 27/27/27
f 29/29/29 25/25/25 26/26/26
f 29/29/29 26/26/26 30/30/30
f 31/31/31 29/29/29 30/30/30
f 31/31/31 30/30/30 32/32/32
f 33/33/33 35/35/35 34/34/34
f 33/33/33 36/36/36 35/35/35
f 37/37/37 33/33/33 34/34/34
f 37/37/37 34/34/34 38/38/38
f 39/39/39 37/37/37 38/38/38
f 39/39/39 38/38/38 40/40/40
f 41/41/41 43/43/43 42/42/42
f 41/41/41 44/44/44 43/43/43
f 45/45/45 41/41/41 42/42/42
f 45/45/45 42/42/42 46/46/46
f 47/47/47 45/45/45 46/46/46
f 47/47/47 46/46/46 48/48/48
f 49/49/49 51/51/51 50/50/50
f 49/49/49 52/52/52 51/51/51
f 53/53/53 49/49/49 50/50/50
f 53/53/53 50/50/50 54/54/54
f 55/55/55 53/53/53 54/54/54
f 55/55/55 54/54/54 56/56/56
f 57/57/57 59/59/59 58/58/58
f 57/57/57 60/60/60 59/59/59
f 61/61/61 63/63/63 62/62/62
f 61/61/61 64/64/64 63/63/63
f 65/65/65 67/67/67 66/66/66
f 65/65/65 68/68/68 67/67/67
f 69/69/69 71/71/71 70/70/70
f 69/69/69 72/72/72 71/71/71
f 73/73/73 75/75/75 74/74/74
f 73/73/73 76/76/76 75/75/75
f 77/77/77 79/79/79 78/78/78
f 77/77/77 80/80/80 79/79/79
f 81/81/81 83/83/83 82/82/82
f 81/81/81 84/84/84 83/83/83
f 85/85/85 87/87/87 86/86/86
f 85/85/85 88/88/88 87/87/87
f 89/89/89 91/91/91 90/90/90
f 89/89/89 92/92/92 91/91/91
f 93/93/93 95/95/95 94/94/94
f 93/93/93 96/96/96 95/95/95
f 97/97/97 99/99/99 98/98/98
f 97/97/97 100/100/100 99/99/99
f 98/98/98 99/99/99 101/101/101
f 98/98/98 101/101/101 102/102/102
f 102/102/102 101/101/101 103/103/103
f 102/102/102 103/103/103 104/104/104
f 104/104/104 103/103/103 105/105/105
f 104/104/104 105/105/105 106/106/106
f 107/107/107 109/109/109 108/108/108
f 107/107/107 110/110/110 109/109/109
f 111/111/111 110/110/110 107/107/107
f 111/111/111 112/112/112 110/110/110
f 108/108/108 109/109/109 113/113/113
f 108/108/108 113/113/113 114/114/114
f 115/115/115 117/117/117 116/116/116
f 115/115/115 118/118/118 117/117/117
f 119/119/119 121/121/121 120/120/120
f 119/119/119 122/122/122 121/121/121
f 123/123/123 125/125/125 124/124/124
f 123/123/123 126/126/126 125/125/125
f 127/127/127 129/129/129 128/128/128
f 127/127/127 130/130/130 129/129/129
f 131/131/131 133/133/133 132/132/132
f 131/131/131 134/134/134 133/133/133
f 135/135/135 137/137/137 136/136/136
f 135/135/135 138/138/138 137/137/137
f 139/139/139 141/141/141 140/140/140
f 139/139/139 142/142/142 141/141/141
f 143/143/143 145/145/145 144/144/144
f 143/143/143 146/146/146 145/145/145
f 147/147/147 149/149/149 148/148/148
f 147/147/147 150/150/150 149/149/149
f 151/151/151 153/153/153 152/152/152
f 151/151/151 154/154/154 153/153/153
f 155/155/155 157/157/157 156/156/156
f 155/155/155 158/158/158 157/157/157
f 159/159/159 161/161/161 160/160/160
f 159/159/159 162/162/162 161/161/161
f 163/163/163 165/165/165 164/164/164
f 163/163/163 166/166/166 165/165/165
f 167/167/167 169/169/169 168/168/168
f 167/167/167 170/170/170 169/169/169
