#Boost.obj

v -0.5 -0.7764654 0.01950979
v -0.5 1.180041 0.01950979
v -0.5 1.180041 0.8453398
v -0.5 1.180041 0.8453398
v -0.5 1.180041 0.01950979
v 0.5 1.180041 0.01950979
v 0.5 1.180041 0.8453398
v 0.5 1.180041 0.8453398
v 0.5 1.180041 0.01950979
v 0.5 -0.7764654 0.01950979
v -0.5 -0.7764654 0.01950979
v 0.5 -0.7764654 0.01950979
v 0.5 1.180041 0.01950979
v -0.5 1.180041 0.01950979
v -0.5 -0.7764654 0.01950979
v -0.5 1.180041 0.8453398
v 0.5 1.180041 0.8453398
v 0.5 -0.7764654 0.01950979

vn -1 0 0
vn -1 0 0
vn -1 0 0
vn 0 1 0
vn 0 1 0
vn 0 1 0
vn 0 1 0
vn 1 0 0
vn 1 0 0
vn 1 0 0
vn 0 0 -1
vn 0 0 -1
vn 0 0 -1
vn 0 0 -1
vn 0 -0.388872 0.9212918
vn 0 -0.388872 0.9212918
vn 0 -0.388872 0.9212918
vn 0 -0.388872 0.9212918

vt 0.9992191 0.3262811
vt 0.9992192 0.5911169
vt 0.8874336 0.5911168
vt 0.4455016 0.3601513
vt 0.4455016 0.3601513
vt 0.4455016 0.3601513
vt 0.4455016 0.3601513
vt 1.000575 0.8625059
vt 0.889325 0.8158879
vt 0.9997694 0.5523216
vt 0.4455016 0.3601513
vt 0.4455016 0.3601513
vt 0.4455016 0.3601513
vt 0.4455016 0.3601513
vt 0.4577198 0.117774
vt 0.0207244 0.117774
vt 0.0207244 0.02344894
vt 0.4577198 0.02344894

g Boost.obj
usemtl Boost
usemap Boost
f 1/1/1 3/3/3 2/2/2
f 4/4/4 6/6/6 5/5/5
f 4/4/4 7/7/7 6/6/6
f 8/8/8 10/10/10 9/9/9
f 11/11/11 13/13/13 12/12/12
f 11/11/11 14/14/14 13/13/13
f 15/15/15 17/17/17 16/16/16
f 15/15/15 18/18/18 17/17/17
