#HamA.obj

v 0.2721777 2.070206 -2.291714
v 0.2721777 2.070206 -3.724662
v 0.8094759 1.848307 -3.724662
v 0.8094759 1.848307 -2.163601
v 0.2721777 2.070206 -0.8587656
v 0.8094759 1.848307 -0.60254
v 0.2721777 2.070206 0.5741825
v 0.8094759 1.848307 0.9585209
v -0.309138 2.069599 -2.291363
v -0.3091383 2.069599 -3.724662
v 0.2721777 2.070206 -3.724662
v 0.2721777 2.070206 -2.291714
v -0.3091377 2.069598 -0.8580644
v 0.2721777 2.070206 -0.8587656
v -0.3091373 2.069598 0.5752344
v 0.2721777 2.070206 0.5741825
v 0.8094759 1.848307 -3.724662
v 0.2721777 2.070206 -3.724662
v 0.2139578 1.775909 -3.724662
v 0.6430655 1.598692 -3.724662
v 0.8094759 1.848307 -2.163601
v 0.8094759 1.848307 -3.724662
v 1.220958 1.437685 -3.724662
v 1.220958 1.437685 -1.926528
v 0.8094759 1.848307 -0.60254
v 1.220958 1.437685 -0.1283935
v 0.8094759 1.848307 0.9585209
v 1.220959 1.437685 1.669741
v -0.8459717 1.846577 -2.162601
v -0.8459721 1.846577 -3.724662
v -0.3091383 2.069599 -3.724662
v -0.309138 2.069599 -2.291363
v -0.8459714 1.846577 -0.6005411
v -0.3091377 2.069598 -0.8580644
v -0.8459711 1.846577 0.9615192
v -0.3091373 2.069598 0.5752344
v 0.2721777 2.070206 -3.724662
v -0.3091383 2.069599 -3.724662
v -0.2503033 1.775424 -3.724662
v 0.2139578 1.775909 -3.724662
v 1.220958 1.437685 -3.724662
v 0.8094759 1.848307 -3.724662
v 0.6430655 1.598692 -3.724662
v 0.9716921 1.270753 -3.724662
v 0.6430658 1.598692 -2.019485
v 0.6430655 1.598692 -3.724662
v 0.2139578 1.775909 -3.724662
v 0.2139578 1.775909 -2.121802
v 0.6430661 1.598692 -0.3143091
v 0.2139578 1.775909 -0.5189415
v 0.6430664 1.598692 1.390867
v 0.2139578 1.775909 1.083919
v 1.220958 1.437685 -1.926528
v 1.220958 1.437685 -3.724662
v 1.44398 0.9008512 -3.724662
v 1.44398 0.9008512 -1.616587
v 1.220958 1.437685 -0.1283935
v 1.44398 0.9008512 0.4914877
v 1.220959 1.437685 1.669741
v 1.44398 0.9008512 2.599563
v -1.256595 1.435094 -1.925032
v -1.256595 1.435094 -3.724662
v -0.8459721 1.846577 -3.724662
v -0.8459717 1.846577 -2.162601
v -1.256595 1.435094 -0.1254028
v -0.8459714 1.846577 -0.6005411
v -1.256595 1.435094 1.674227
v -0.8459711 1.846577 0.9615192
v -0.3091383 2.069599 -3.724662
v -0.8459721 1.846577 -3.724662
v -0.67904 1.59731 -3.724662
v -0.2503033 1.775424 -3.724662
v 0.2139578 1.775909 -2.121802
v 0.2139578 1.775909 -3.724662
v -0.2503033 1.775424 -3.724662
v -0.2503033 1.775424 -2.121521
v 0.2139578 1.775909 -0.5189415
v -0.2503033 1.775424 -0.5183815
v 0.2139578 1.775909 1.083919
v -0.2503033 1.775424 1.084759
v 1.44398 0.9008512 -3.724662
v 1.220958 1.437685 -3.724662
v 0.9716921 1.270753 -3.724662
v 1.149806 0.8420167 -3.724662
v 0.9716921 1.270753 -1.83015
v 0.9716921 1.270753 -3.724662
v 0.6430655 1.598692 -3.724662
v 0.6430658 1.598692 -2.019485
v 0.9716921 1.270753 0.06436253
v 0.6430661 1.598692 -0.3143091
v 0.9716921 1.270753 1.958875
v 0.6430664 1.598692 1.390867
v 1.44398 0.9008512 -1.616587
v 1.44398 0.9008512 -3.724662
v 1.444588 0.3195353 -3.724662
v 1.444588 0.3195353 -1.280964
v 1.44398 0.9008512 0.4914877
v 1.444588 0.3195353 1.162733
v 1.44398 0.9008512 2.599563
v 1.444588 0.3195353 3.606431
v -1.478493 0.8977957 -1.614822
v -1.478494 0.8977957 -3.724661
v -1.256595 1.435094 -3.724662
v -1.256595 1.435094 -1.925032
v -1.478493 0.8977957 0.4950166
v -1.256595 1.435094 -0.1254028
v -1.478493 0.8977957 2.604856
v -1.256595 1.435094 1.674227
v -0.8459721 1.846577 -3.724662
v -1.256595 1.435094 -3.724662
v -1.00698 1.268684 -3.724662
v -0.67904 1.59731 -3.724662
v -0.2503033 1.775424 -2.121521
v -0.2503033 1.775424 -3.724662
v -0.67904 1.59731 -3.724662
v -0.67904 1.59731 -2.018687
v -0.2503033 1.775424 -0.5183815
v -0.67904 1.59731 -0.3127133
v -0.2503033 1.775424 1.084759
v -0.67904 1.59731 1.393261
v 1.444588 0.3195353 -3.724662
v 1.44398 0.9008512 -3.724662
v 1.149806 0.8420167 -3.724662
v 1.144588 0.3192215 -3.724662
v 1.149806 0.8420167 -1.582619
v 1.149806 0.8420167 -3.724662
v 0.9716921 1.270753 -3.724662
v 0.9716921 1.270753 -1.83015
v 1.149806 0.8420167 0.5594244
v 0.9716921 1.270753 0.06436253
v 1.149806 0.8420167 2.701468
v 0.9716921 1.270753 1.958875
v 1.444588 0.3195353 -1.280964
v 1.444588 0.3195353 -3.724662
v 1.144588 0.3192215 -3.724662
v 1.144588 0.3192215 -1.280783
v 1.444588 0.3195353 1.162733
v 1.144588 0.3192215 1.163096
v 1.444588 0.3195353 3.606431
v 1.144588 0.3192215 3.606975
v -1.477885 0.3164792 -1.2792
v -1.477885 0.3164792 -3.724661
v -1.478494 0.8977957 -3.724661
v -1.478493 0.8977957 -1.614822
v -1.477885 0.3164792 1.166262
v -1.478493 0.8977957 0.4950166
v -1.477885 0.3164792 3.611724
v -1.478493 0.8977957 2.604856
v -1.256595 1.435094 -3.724662
v -1.478494 0.8977957 -3.724661
v -1.184196 0.8395762 -3.724662
v -1.00698 1.268684 -3.724662
v -0.67904 1.59731 -2.018687
v -0.67904 1.59731 -3.724662
v -1.00698 1.268684 -3.724662
v -1.00698 1.268684 -1.828955
v -0.67904 1.59731 -0.3127133
v -1.006979 1.268684 0.06675112
v -0.67904 1.59731 1.393261
v -1.006979 1.268684 1.962458
v 1.144588 0.3192215 -1.280783
v 1.144588 0.3192215 -3.724662
v 1.149806 0.8420167 -3.724662
v 1.149806 0.8420167 -1.582619
v 1.144588 0.3192215 1.163096
v 1.149806 0.8420167 0.5594244
v 1.144588 0.3192215 3.606975
v 1.149806 0.8420167 2.701468
v -1.177886 0.316793 -1.279381
v -1.177886 0.316793 -3.724662
v -1.477885 0.3164792 -3.724661
v -1.477885 0.3164792 -1.2792
v -1.177885 0.316793 1.1659
v -1.477885 0.3164792 1.166262
v -1.177885 0.316793 3.61118
v -1.477885 0.3164792 3.611724
v -1.478494 0.8977957 -3.724661
v -1.477885 0.3164792 -3.724661
v -1.177886 0.316793 -3.724662
v -1.184196 0.8395762 -3.724662
v -1.00698 1.268684 -1.828955
v -1.00698 1.268684 -3.724662
v -1.184196 0.8395762 -3.724662
v -1.184196 0.8395762 -1.58121
v -1.006979 1.268684 0.06675112
v -1.184196 0.8395762 0.562242
v -1.006979 1.268684 1.962458
v -1.184196 0.8395762 2.705694
v -1.184196 0.8395762 -1.58121
v -1.184196 0.8395762 -3.724662
v -1.177886 0.316793 -3.724662
v -1.177886 0.316793 -1.279381
v -1.184196 0.8395762 0.562242
v -1.177885 0.316793 1.1659
v -1.184196 0.8395762 2.705694
v -1.177885 0.316793 3.61118
v -0.8459711 1.846577 0.9615192
v 0.2139578 1.775909 1.083919
v -0.2503033 1.775424 1.084759
v -1.256595 1.435094 1.674227
v -0.67904 1.59731 1.393261
v -1.006979 1.268684 1.962458
v -1.478493 0.8977957 2.604856
v -1.184196 0.8395762 2.705694
v -1.477885 0.3164792 3.611724
v -1.177885 0.316793 3.61118
v 0.8094759 1.848307 0.9585209
v -0.3091373 2.069598 0.5752344
v 0.2721777 2.070206 0.5741825
v 1.220959 1.437685 1.669741
v 0.6430664 1.598692 1.390867
v 0.9716921 1.270753 1.958875
v 1.44398 0.9008512 2.599563
v 1.149806 0.8420167 2.701468
v 1.444588 0.3195353 3.606431
v 1.144588 0.3192215 3.606975

vn 0.3817176 0.9242791 0
vn 0.3817176 0.9242791 0
vn 0.3817176 0.9242791 0
vn 0.3817176 0.9242791 0
vn 0.3817176 0.9242791 0
vn 0.3817176 0.9242791 0
vn 0.3817176 0.9242791 0
vn 0.3817176 0.9242791 0
vn -0.001044206 0.9999995 0
vn -0.001044206 0.9999995 0
vn -0.001044206 0.9999995 0
vn -0.001044206 0.9999995 0
vn -0.001044822 0.9999995 0
vn -0.001044822 0.9999995 0
vn -0.001044822 0.9999995 0
vn -0.001044822 0.9999995 0
vn 0 0 -1
vn 0 0 -1
vn 0 0 -1
vn 0 0 -1
vn 0.7063672 0.7078456 0
vn 0.7063672 0.7078456 0
vn 0.7063672 0.7078456 0
vn 0.7063672 0.7078456 0
vn 0.7063667 0.7078461 0
vn 0.7063667 0.7078461 0
vn 0.7063667 0.7078461 0
vn 0.7063667 0.7078461 0
vn -0.3836496 0.9234788 0
vn -0.3836496 0.9234788 0
vn -0.3836496 0.9234788 0
vn -0.3836496 0.9234788 0
vn -0.3836491 0.923479 0
vn -0.3836491 0.923479 0
vn -0.3836491 0.923479 0
vn -0.3836491 0.923479 0
vn 0 0 -1
vn 0 0 -1
vn 0 0 -1
vn 0 0 -1
vn 0 0 -1
vn 0 0 -1
vn 0 0 -1
vn 0 0 -1
vn -0.3817166 -0.9242794 0
vn -0.3817166 -0.9242794 0
vn -0.3817166 -0.9242794 0
vn -0.3817166 -0.9242794 0
vn -0.3817162 -0.9242797 0
vn -0.3817162 -0.9242797 0
vn -0.3817162 -0.9242797 0
vn -0.3817162 -0.9242797 0
vn 0.9234785 0.3836503 0
vn 0.9234785 0.3836503 0
vn 0.9234785 0.3836503 0
vn 0.9234785 0.3836503 0
vn 0.9234788 0.3836493 0
vn 0.9234788 0.3836493 0
vn 0.9234788 0.3836493 0
vn 0.9234788 0.3836493 0
vn -0.7078457 0.7063671 0
vn -0.7078457 0.7063671 0
vn -0.7078457 0.7063671 0
vn -0.7078457 0.7063671 0
vn -0.707845 0.7063677 0
vn -0.707845 0.7063677 0
vn -0.707845 0.7063677 0
vn -0.707845 0.7063677 0
vn 0 0 -1
vn 0 0 -1
vn 0 0 -1
vn 0 0 -1
vn 0.001043778 -0.9999995 0
vn 0.001043778 -0.9999995 0
vn 0.001043778 -0.9999995 0
vn 0.001043778 -0.9999995 0
vn 0.00104442 -0.9999995 0
vn 0.00104442 -0.9999995 0
vn 0.00104442 -0.9999995 0
vn 0.00104442 -0.9999995 0
vn 0 0 -1
vn 0 0 -1
vn 0 0 -1
vn 0 0 -1
vn -0.7063666 -0.7078462 0
vn -0.7063666 -0.7078462 0
vn -0.7063666 -0.7078462 0
vn -0.7063666 -0.7078462 0
vn -0.7063673 -0.7078455 0
vn -0.7063673 -0.7078455 0
vn -0.7063673 -0.7078455 0
vn -0.7063673 -0.7078455 0
vn 0.9999995 0.001045033 0
vn 0.9999995 0.001045033 0
vn 0.9999995 0.001045033 0
vn 0.9999995 0.001045033 0
vn 0.9999995 0.001044943 0
vn 0.9999995 0.001044943 0
vn 0.9999995 0.001044943 0
vn 0.9999995 0.001044943 0
vn -0.924279 0.3817177 0
vn -0.924279 0.3817177 0
vn -0.924279 0.3817177 0
vn -0.924279 0.3817177 0
vn -0.9242793 0.3817168 0
vn -0.9242793 0.3817168 0
vn -0.9242793 0.3817168 0
vn -0.9242793 0.3817168 0
vn 0 0 -1
vn 0 0 -1
vn 0 0 -1
vn 0 0 -1
vn 0.3836498 -0.9234787 0
vn 0.3836498 -0.9234787 0
vn 0.3836498 -0.9234787 0
vn 0.3836498 -0.9234787 0
vn 0.3836493 -0.9234788 0
vn 0.3836493 -0.9234788 0
vn 0.3836493 -0.9234788 0
vn 0.3836493 -0.9234788 0
vn 0 0 -1
vn 0 0 -1
vn 0 0 -1
vn 0 0 -1
vn -0.9234788 -0.3836494 0
vn -0.9234788 -0.3836494 0
vn -0.9234788 -0.3836494 0
vn -0.9234788 -0.3836494 0
vn -0.9234788 -0.3836493 0
vn -0.9234788 -0.3836493 0
vn -0.9234788 -0.3836493 0
vn -0.9234788 -0.3836493 0
vn 0.001045862 -0.9999995 0
vn 0.001045862 -0.9999995 0
vn 0.001045862 -0.9999995 0
vn 0.001045862 -0.9999995 0
vn 0.001045864 -0.9999995 0
vn 0.001045864 -0.9999995 0
vn 0.001045864 -0.9999995 0
vn 0.001045864 -0.9999995 0
vn -0.9999995 -0.001046204 0
vn -0.9999995 -0.001046204 0
vn -0.9999995 -0.001046204 0
vn -0.9999995 -0.001046204 0
vn -0.9999995 -0.001045214 0
vn -0.9999995 -0.001045214 0
vn -0.9999995 -0.001045214 0
vn -0.9999995 -0.001045214 0
vn 0 0 -1
vn 0 0 -1
vn 0 0 -1
vn 0 0 -1
vn 0.7078455 -0.7063673 0
vn 0.7078455 -0.7063673 0
vn 0.7078455 -0.7063673 0
vn 0.7078455 -0.7063673 0
vn 0.7078459 -0.7063669 0
vn 0.7078459 -0.7063669 0
vn 0.7078459 -0.7063669 0
vn 0.7078459 -0.7063669 0
vn -0.9999502 0.00998097 0
vn -0.9999502 0.00998097 0
vn -0.9999502 0.00998097 0
vn -0.9999502 0.00998097 0
vn -0.9999502 0.009979927 0
vn -0.9999502 0.009979927 0
vn -0.9999502 0.009979927 0
vn -0.9999502 0.009979927 0
vn 0.001045865 -0.9999995 0
vn 0.001045865 -0.9999995 0
vn 0.001045865 -0.9999995 0
vn 0.001045865 -0.9999995 0
vn 0.001045862 -0.9999995 0
vn 0.001045862 -0.9999995 0
vn 0.001045862 -0.9999995 0
vn 0.001045862 -0.9999995 0
vn 0 0 -1
vn 0 0 -1
vn 0 0 -1
vn 0 0 -1
vn 0.9242791 -0.3817173 0
vn 0.9242791 -0.3817173 0
vn 0.9242791 -0.3817173 0
vn 0.9242791 -0.3817173 0
vn 0.9242787 -0.3817181 0
vn 0.9242787 -0.3817181 0
vn 0.9242787 -0.3817181 0
vn 0.9242787 -0.3817181 0
vn 0.9999272 0.01207036 0
vn 0.9999272 0.01207036 0
vn 0.9999272 0.01207036 0
vn 0.9999272 0.01207036 0
vn 0.9999272 0.01207135 0
vn 0.9999272 0.01207135 0
vn 0.9999272 0.01207135 0
vn 0.9999272 0.01207135 0
vn 0 0.8660253 0.5000003
vn 0 0.8660253 0.5000003
vn 0 0.8660253 0.5000003
vn 0 0.8660253 0.5000003
vn 0 0.8660253 0.5000003
vn 0 0.8660253 0.5000003
vn 0 0.8660253 0.5000003
vn 0 0.8660253 0.5000003
vn 0 0.8660253 0.5000003
vn 0 0.8660253 0.5000003
vn 0 0.8660253 0.5000003
vn 0 0.8660253 0.5000003
vn 0 0.8660253 0.5000003
vn 0 0.8660253 0.5000003
vn 0 0.8660253 0.5000003
vn 0 0.8660253 0.5000003
vn 0 0.8660253 0.5000003
vn 0 0.8660253 0.5000003
vn 0 0.8660253 0.5000003
vn 0 0.8660253 0.5000003

vt 0.9169789 0.6457655
vt 0.9169788 0.7528411
vt 0.9586842 0.7528411
vt 0.9586842 0.6361924
vt 0.916979 0.5386899
vt 0.9586842 0.5195436
vt 0.916979 0.4316143
vt 0.9586843 0.402895
vt 0.9169789 0.6457393
vt 0.9169788 0.7528411
vt 0.9586841 0.7528411
vt 0.9586842 0.6457655
vt 0.916979 0.5386374
vt 0.9586842 0.5386899
vt 0.916979 0.4315356
vt 0.9586842 0.4316143
vt 0.9999289 0.4938468
vt 7.167076E-05 0.4938468
vt 0.1007367 0.9999285
vt 0.8992619 0.9999289
vt 0.9169789 0.6361924
vt 0.9169788 0.7528411
vt 0.9586841 0.7528411
vt 0.9586841 0.6184773
vt 0.916979 0.5195436
vt 0.9586842 0.4841136
vt 0.9169791 0.402895
vt 0.9586842 0.3497498
vt 0.9169789 0.6361177
vt 0.9169788 0.7528411
vt 0.9586842 0.7528411
vt 0.9586842 0.6457393
vt 0.916979 0.5193943
vt 0.9586842 0.5386375
vt 0.9169791 0.4026709
vt 0.9586843 0.4315357
vt 0.9999288 0.4938467
vt 7.113443E-05 0.4938462
vt 0.1007373 0.9999279
vt 0.899263 0.9999289
vt 0.9999289 0.493847
vt 7.113437E-05 0.493847
vt 0.1007372 0.9999287
vt 0.8992628 0.9999289
vt 0.9163092 0.6259441
vt 0.9163092 0.7531057
vt 0.9584863 0.7531057
vt 0.9584863 0.6335743
vt 0.9163092 0.4987826
vt 0.9584863 0.5140429
vt 0.9163092 0.3716211
vt 0.9584863 0.3945115
vt 0.9169789 0.6184773
vt 0.9169788 0.7528411
vt 0.9586842 0.7528411
vt 0.9586842 0.5953173
vt 0.916979 0.4841136
vt 0.9586842 0.4377935
vt 0.9169791 0.3497498
vt 0.9586843 0.2802697
vt 0.9169789 0.6183655
vt 0.9169788 0.7528411
vt 0.9586842 0.7528411
vt 0.9586842 0.6361177
vt 0.916979 0.4838901
vt 0.9586842 0.5193943
vt 0.9169791 0.3494145
vt 0.9586843 0.4026709
vt 0.9999288 0.4938472
vt 7.113436E-05 0.4938472
vt 0.1007369 0.9999286
vt 0.8992625 0.9999287
vt 0.9163092 0.6335742
vt 0.9163092 0.7531057
vt 0.9584863 0.7531057
vt 0.9584862 0.6335534
vt 0.9163092 0.5140429
vt 0.9584862 0.5140011
vt 0.9163092 0.3945114
vt 0.9584862 0.3944488
vt 7.11344E-05 0.9999287
vt 0.9999288 0.9999289
vt 0.8992632 0.4938475
vt 0.1007371 0.4938467
vt 0.9163092 0.6118246
vt 0.9163092 0.7531057
vt 0.9584863 0.7531057
vt 0.9584862 0.6259441
vt 0.9163092 0.4705436
vt 0.9584862 0.4987826
vt 0.9163092 0.3292626
vt 0.9584862 0.3716211
vt 0.8294331 0.476873
vt 0.829433 0.6333644
vt 0.8691626 0.6333645
vt 0.8691626 0.4519583
vt 0.8294331 0.3203815
vt 0.8691626 0.2705521
vt 0.8294332 0.16389
vt 0.8691626 0.08914584
vt 0.9169789 0.5951855
vt 0.9169788 0.7528411
vt 0.9586842 0.7528411
vt 0.9586842 0.6183656
vt 0.916979 0.4375299
vt 0.9586842 0.4838901
vt 0.9169791 0.2798743
vt 0.9586843 0.3494146
vt 0.9999288 0.4938466
vt 7.131319E-05 0.4938468
vt 0.1007372 0.9999285
vt 0.8992635 0.9999288
vt 0.9163092 0.6335534
vt 0.9163092 0.7531057
vt 0.9584863 0.7531057
vt 0.9584863 0.6258847
vt 0.9163092 0.5140011
vt 0.9584863 0.4986636
vt 0.9163092 0.3944488
vt 0.9584863 0.3714426
vt 0.2628079 0.8452933
vt 0.1997903 0.9999107
vt 0.3428546 0.9988362
vt 0.2971308 0.8424392
vt 0.9163092 0.5933653
vt 0.9163092 0.7531057
vt 0.9584863 0.7531057
vt 0.9584863 0.6118246
vt 0.9163092 0.433625
vt 0.9584863 0.4705436
vt 0.9163092 0.2738846
vt 0.9584863 0.3292626
vt 0.2688878 0.6385986
vt 0.2628079 0.8452933
vt 0.2971308 0.8424392
vt 0.3031048 0.6383836
vt 0.2749677 0.4319038
vt 0.3090788 0.4343281
vt 0.2810475 0.225209
vt 0.3150528 0.2302727
vt 0.8294331 0.4518273
vt 0.829433 0.6333644
vt 0.8691625 0.6333645
vt 0.8691624 0.476742
vt 0.8294332 0.2702901
vt 0.8691624 0.3201195
vt 0.8294333 0.08875287
vt 0.8691625 0.163497
vt 0.9999288 0.4938471
vt 7.119395E-05 0.4938472
vt 0.1007371 0.9999288
vt 0.8992627 0.9999289
vt 0.9163092 0.6258847
vt 0.9163092 0.7531057
vt 0.9584863 0.7531057
vt 0.9584863 0.6117356
vt 0.9163092 0.4986636
vt 0.9584863 0.4703655
vt 0.9163092 0.3714426
vt 0.9584863 0.3289954
vt 0.8294322 0.4519451
vt 0.8294322 0.6333653
vt 0.8651643 0.6333653
vt 0.8651642 0.4743517
vt 0.8294322 0.2705249
vt 0.8651641 0.3153382
vt 0.8294322 0.08910465
vt 0.865164 0.1563246
vt 0.0900389 0.57538
vt 0.08406126 0.7795523
vt 0.11806 0.7847898
vt 0.1241445 0.5779461
vt 0.09601654 0.3712077
vt 0.1302289 0.3711023
vt 0.1019942 0.1670354
vt 0.1363134 0.1642586
vt 0.1996117 0.9999107
vt 0.11806 0.7847898
vt 0.0840613 0.7795523
vt 8.932772E-05 0.9893858
vt 0.9163092 0.6117356
vt 0.9163092 0.7531057
vt 0.9584863 0.7531057
vt 0.9584863 0.5932603
vt 0.9163092 0.4703655
vt 0.9584863 0.4334148
vt 0.9163093 0.3289953
vt 0.9584863 0.2735693
vt 0.8294322 0.4742471
vt 0.8294322 0.6333653
vt 0.8651643 0.6333653
vt 0.8651643 0.451841
vt 0.8294322 0.315129
vt 0.8651642 0.2703168
vt 0.8294323 0.1560108
vt 0.8651641 0.08879244
vt 0.7492548 0.7998816
vt 0.6733206 0.8086504
vt 0.7065807 0.8087106
vt 0.7786723 0.8509407
vt 0.7372958 0.830812
vt 0.7607896 0.8715898
vt 0.7945694 0.9176118
vt 0.7734857 0.924836
vt 0.7945259 0.9897448
vt 0.7730335 0.989706
vt 0.630657 0.7996668
vt 0.7107956 0.7722078
vt 0.6691496 0.7721325
vt 0.601178 0.8506193
vt 0.6425787 0.8306406
vt 0.6190357 0.8713331
vt 0.5852005 0.9172326
vt 0.6062754 0.9245332
vt 0.585157 0.9893657
vt 0.6066493 0.9894046

g HamA.obj
usemtl HamA
usemap HamA
f 1/1/1 3/3/3 2/2/2
f 1/1/1 4/4/4 3/3/3
f 5/5/5 4/4/4 1/1/1
f 5/5/5 6/6/6 4/4/4
f 7/7/7 6/6/6 5/5/5
f 7/7/7 8/8/8 6/6/6
f 9/9/9 11/11/11 10/10/10
f 9/9/9 12/12/12 11/11/11
f 13/13/13 12/12/12 9/9/9
f 13/13/13 14/14/14 12/12/12
f 15/15/15 14/14/14 13/13/13
f 15/15/15 16/16/16 14/14/14
f 17/17/17 19/19/19 18/18/18
f 17/17/17 20/20/20 19/19/19
f 21/21/21 23/23/23 22/22/22
f 21/21/21 24/24/24 23/23/23
f 25/25/25 24/24/24 21/21/21
f 25/25/25 26/26/26 24/24/24
f 27/27/27 26/26/26 25/25/25
f 27/27/27 28/28/28 26/26/26
f 29/29/29 31/31/31 30/30/30
f 29/29/29 32/32/32 31/31/31
f 33/33/33 32/32/32 29/29/29
f 33/33/33 34/34/34 32/32/32
f 35/35/35 34/34/34 33/33/33
f 35/35/35 36/36/36 34/34/34
f 37/37/37 39/39/39 38/38/38
f 37/37/37 40/40/40 39/39/39
f 41/41/41 43/43/43 42/42/42
f 41/41/41 44/44/44 43/43/43
f 45/45/45 47/47/47 46/46/46
f 45/45/45 48/48/48 47/47/47
f 49/49/49 48/48/48 45/45/45
f 49/49/49 50/50/50 48/48/48
f 51/51/51 50/50/50 49/49/49
f 51/51/51 52/52/52 50/50/50
f 53/53/53 55/55/55 54/54/54
f 53/53/53 56/56/56 55/55/55
f 57/57/57 56/56/56 53/53/53
f 57/57/57 58/58/58 56/56/56
f 59/59/59 58/58/58 57/57/57
f 59/59/59 60/60/60 58/58/58
f 61/61/61 63/63/63 62/62/62
f 61/61/61 64/64/64 63/63/63
f 65/65/65 64/64/64 61/61/61
f 65/65/65 66/66/66 64/64/64
f 67/67/67 66/66/66 65/65/65
f 67/67/67 68/68/68 66/66/66
f 69/69/69 71/71/71 70/70/70
f 69/69/69 72/72/72 71/71/71
f 73/73/73 75/75/75 74/74/74
f 73/73/73 76/76/76 75/75/75
f 77/77/77 76/76/76 73/73/73
f 77/77/77 78/78/78 76/76/76
f 79/79/79 78/78/78 77/77/77
f 79/79/79 80/80/80 78/78/78
f 81/81/81 83/83/83 82/82/82
f 81/81/81 84/84/84 83/83/83
f 85/85/85 87/87/87 86/86/86
f 85/85/85 88/88/88 87/87/87
f 89/89/89 88/88/88 85/85/85
f 89/89/89 90/90/90 88/88/88
f 91/91/91 90/90/90 89/89/89
f 91/91/91 92/92/92 90/90/90
f 93/93/93 95/95/95 94/94/94
f 93/93/93 96/96/96 95/95/95
f 97/97/97 96/96/96 93/93/93
f 97/97/97 98/98/98 96/96/96
f 99/99/99 98/98/98 97/97/97
f 99/99/99 100/100/100 98/98/98
f 101/101/101 103/103/103 102/102/102
f 101/101/101 104/104/104 103/103/103
f 105/105/105 104/104/104 101/101/101
f 105/105/105 106/106/106 104/104/104
f 107/107/107 106/106/106 105/105/105
f 107/107/107 108/108/108 106/106/106
f 109/109/109 111/111/111 110/110/110
f 109/109/109 112/112/112 111/111/111
f 113/113/113 115/115/115 114/114/114
f 113/113/113 116/116/116 115/115/115
f 117/117/117 116/116/116 113/113/113
f 117/117/117 118/118/118 116/116/116
f 119/119/119 118/118/118 117/117/117
f 119/119/119 120/120/120 118/118/118
f 121/121/121 123/123/123 122/122/122
f 121/121/121 124/124/124 123/123/123
f 125/125/125 127/127/127 126/126/126
f 125/125/125 128/128/128 127/127/127
f 129/129/129 128/128/128 125/125/125
f 129/129/129 130/130/130 128/128/128
f 131/131/131 130/130/130 129/129/129
f 131/131/131 132/132/132 130/130/130
f 133/133/133 135/135/135 134/134/134
f 133/133/133 136/136/136 135/135/135
f 137/137/137 136/136/136 133/133/133
f 137/137/137 138/138/138 136/136/136
f 139/139/139 138/138/138 137/137/137
f 139/139/139 140/140/140 138/138/138
f 141/141/141 143/143/143 142/142/142
f 141/141/141 144/144/144 143/143/143
f 145/145/145 144/144/144 141/141/141
f 145/145/145 146/146/146 144/144/144
f 147/147/147 146/146/146 145/145/145
f 147/147/147 148/148/148 146/146/146
f 149/149/149 151/151/151 150/150/150
f 149/149/149 152/152/152 151/151/151
f 153/153/153 155/155/155 154/154/154
f 153/153/153 156/156/156 155/155/155
f 157/157/157 156/156/156 153/153/153
f 157/157/157 158/158/158 156/156/156
f 159/159/159 158/158/158 157/157/157
f 159/159/159 160/160/160 158/158/158
f 161/161/161 163/163/163 162/162/162
f 161/161/161 164/164/164 163/163/163
f 165/165/165 164/164/164 161/161/161
f 165/165/165 166/166/166 164/164/164
f 167/167/167 166/166/166 165/165/165
f 167/167/167 168/168/168 166/166/166
f 169/169/169 171/171/171 170/170/170
f 169/169/169 172/172/172 171/171/171
f 173/173/173 172/172/172 169/169/169
f 173/173/173 174/174/174 172/172/172
f 175/175/175 174/174/174 173/173/173
f 175/175/175 176/176/176 174/174/174
f 177/177/177 179/179/179 178/178/178
f 177/177/177 180/180/180 179/179/179
f 181/181/181 183/183/183 182/182/182
f 181/181/181 184/184/184 183/183/183
f 185/185/185 184/184/184 181/181/181
f 185/185/185 186/186/186 184/184/184
f 187/187/187 186/186/186 185/185/185
f 187/187/187 188/188/188 186/186/186
f 189/189/189 191/191/191 190/190/190
f 189/189/189 192/192/192 191/191/191
f 193/193/193 192/192/192 189/189/189
f 193/193/193 194/194/194 192/192/192
f 195/195/195 194/194/194 193/193/193
f 195/195/195 196/196/196 194/194/194
f 197/197/197 199/199/199 198/198/198
f 199/199/199 197/197/197 200/200/200
f 199/199/199 200/200/200 201/201/201
f 201/201/201 200/200/200 202/202/202
f 202/202/202 200/200/200 203/203/203
f 202/202/202 203/203/203 204/204/204
f 204/204/204 203/203/203 205/205/205
f 204/204/204 205/205/205 206/206/206
f 207/207/207 197/197/197 198/198/198
f 207/207/207 208/208/208 197/197/197
f 208/208/208 207/207/207 209/209/209
f 207/207/207 198/198/198 210/210/210
f 210/210/210 198/198/198 211/211/211
f 210/210/210 211/211/211 212/212/212
f 210/210/210 212/212/212 213/213/213
f 213/213/213 212/212/212 214/214/214
f 213/213/213 214/214/214 215/215/215
f 215/215/215 214/214/214 216/216/216
