#Slope-01.obj

v 1.500002 0.5562716 -0.005487442
v 1.500002 0.1436629 0.09775543
v -1.499998 0.1436629 0.09775543
v -1.499998 0.5562716 -0.005487442
v 1.500002 0.1436629 0.09775543
v 1.500002 -0.2586341 0.402102
v -1.499998 -0.2586341 0.402102
v -1.499998 0.1436629 0.09775543
v 1.500002 -0.2586341 0.402102
v 1.500002 -0.4559355 0.4026046
v -1.499998 -0.4559355 0.4026046
v -1.499998 -0.2586341 0.402102
v 1.500002 -0.5562711 0.4024067
v 1.500002 -0.5558953 -0.9956784
v -1.499998 -0.5558953 -0.9956784
v -1.499998 -0.5562711 0.4024067
v 1.500002 -0.5558953 -0.9956784
v 1.500002 0.546556 -0.9956551
v -1.499998 0.546556 -0.9956551
v -1.499998 -0.5558953 -0.9956784
v 1.500002 -0.5558953 -0.9956784
v 1.500002 -0.5562711 0.4024067
v 1.500002 -0.4559355 0.4026046
v 1.500002 0.546556 -0.9956551
v 1.500002 -0.2586341 0.402102
v 1.500002 0.1436629 0.09775543
v 1.500002 0.5562716 -0.005487442
v 1.500002 -0.4559355 0.4026046
v 1.500002 -0.2586341 0.402102
v 1.500002 0.546556 -0.9956551
v -1.499998 -0.4559355 0.4026046
v -1.499998 -0.5562711 0.4024067
v -1.499998 -0.5558953 -0.9956784
v -1.499998 0.546556 -0.9956551
v -1.499998 0.1436629 0.09775543
v -1.499998 -0.2586341 0.402102
v -1.499998 0.5562716 -0.005487442
v -1.499998 0.546556 -0.9956551
v -1.499998 -0.2586341 0.402102
v -1.499998 -0.4559355 0.4026046
v -1.499998 0.5562716 -0.005487442
v -1.499998 0.546556 -0.9956551
v 1.500002 0.546556 -0.9956551
v 1.500002 0.5562716 -0.005487442
v 1.500002 -0.4559355 0.4026046
v 1.500002 -0.5562711 0.4024067
v -1.499998 -0.5562711 0.4024067
v -1.499998 -0.4559355 0.4026046

vn 0 0.2427364 0.9700922
vn 0 0.2427364 0.9700922
vn 0 0.2427364 0.9700922
vn 0 0.2427364 0.9700922
vn 0 0.6033236 0.7974964
vn 0 0.6033236 0.7974964
vn 0 0.6033236 0.7974964
vn 0 0.6033236 0.7974964
vn 0 0.002547295 0.9999968
vn 0 0.002547295 0.9999968
vn 0 0.002547295 0.9999968
vn 0 0.002547295 0.9999968
vn 0 -1 -0.0002687588
vn 0 -1 -0.0002687588
vn 0 -1 -0.0002687588
vn 0 -1 -0.0002687588
vn 0 2.11937E-05 -1
vn 0 2.11937E-05 -1
vn 0 2.11937E-05 -1
vn 0 2.11937E-05 -1
vn 1 0 0
vn 1 0 0
vn 1 0 0
vn 1 0 0
vn 1 0 0
vn 1 0 0
vn 1 0 0
vn 1 0 0
vn 1 0 0
vn 1 0 0
vn -1 0 0
vn -1 0 0
vn -1 0 0
vn -1 0 0
vn -1 0 0
vn -1 0 0
vn -1 0 0
vn -1 0 0
vn -1 0 0
vn -1 0 0
vn 0 0.9999518 -0.009811561
vn 0 0.9999518 -0.009811561
vn 0 0.9999518 -0.009811561
vn 0 0.9999518 -0.009811561
vn 0 -0.001972252 0.9999981
vn 0 -0.001972252 0.9999981
vn 0 -0.001972252 0.9999981
vn 0 -0.001972252 0.9999981

vt 0.4875824 0.9975939
vt 0.4529121 0.9975939
vt 0.452912 0.7455125
vt 0.4875823 0.7455125
vt 0.4524238 0.9975939
vt 0.4186199 0.9975939
vt 0.4186199 0.7455125
vt 0.4524238 0.7455125
vt 0.35151 0.9975939
vt 0.4013866 0.9975939
vt 0.4013866 0.7455125
vt 0.35151 0.7455125
vt 0.1788197 0.001687527
vt 0.1788197 0.9972675
vt -1.32118 0.9972675
vt -1.32118 0.001687527
vt 0.1788197 0.7354848
vt 0.1788197 0.1842592
vt -1.32118 0.1842592
vt -1.32118 0.7354848
vt 0.04826089 0.9594462
vt 0.04822654 0.7773213
vt 0.05740391 0.7773032
vt 0.1490985 0.959444
vt 0.07545042 0.8315958
vt 0.1122472 0.8594334
vt 0.1499872 0.8688766
vt 0.05740391 0.7773032
vt 0.07545042 0.8315958
vt 0.1490985 0.959444
vt 0.05430352 0.8114075
vt 0.04512615 0.8114256
vt 0.0451605 0.9935505
vt 0.1459981 0.9935483
vt 0.1091468 0.8935377
vt 0.07235003 0.8657001
vt 0.1468868 0.902981
vt 0.1459981 0.9935483
vt 0.07235003 0.8657001
vt 0.05430352 0.8114075
vt 0.1190937 0.852157
vt 0.1190937 0.9697115
vt 0.4752593 0.9697115
vt 0.4752593 0.852157
vt 0.3531755 0.9975939
vt 0.3447445 0.9975939
vt 0.3447445 0.7455125
vt 0.3531755 0.7455125

g Slope-01.obj
usemtl Slope-01
usemap Slope-01
f 1/1/1 3/3/3 2/2/2
f 1/1/1 4/4/4 3/3/3
f 5/5/5 7/7/7 6/6/6
f 5/5/5 8/8/8 7/7/7
f 9/9/9 11/11/11 10/10/10
f 9/9/9 12/12/12 11/11/11
f 13/13/13 15/15/15 14/14/14
f 13/13/13 16/16/16 15/15/15
f 17/17/17 19/19/19 18/18/18
f 17/17/17 20/20/20 19/19/19
f 21/21/21 23/23/23 22/22/22
f 23/23/23 21/21/21 24/24/24
f 25/25/25 24/24/24 26/26/26
f 26/26/26 24/24/24 27/27/27
f 28/28/28 30/30/30 29/29/29
f 31/31/31 33/33/33 32/32/32
f 33/33/33 31/31/31 34/34/34
f 34/34/34 36/36/36 35/35/35
f 34/34/34 35/35/35 37/37/37
f 38/38/38 40/40/40 39/39/39
f 41/41/41 43/43/43 42/42/42
f 41/41/41 44/44/44 43/43/43
f 45/45/45 47/47/47 46/46/46
f 45/45/45 48/48/48 47/47/47
